<?xml version="1.0" encoding="UTF-8"?>
<svg height="128px" viewBox="0 0 128 128" width="128px" xmlns="http://www.w3.org/2000/svg" xmlns:xlink="http://www.w3.org/1999/xlink">
    <filter id="a" height="100%" width="100%" x="0%" y="0%">
        <feColorMatrix color-interpolation-filters="sRGB" values="0 0 0 0 1 0 0 0 0 1 0 0 0 0 1 0 0 0 1 0"/>
    </filter>
    <clipPath id="b">
        <path d="m 20 92 h 88 v 28 h -88 z m 0 0"/>
    </clipPath>
    <clipPath id="c">
        <path d="m 15 87.191406 h 98 v 37.808594 h -98 z m 5.15625 3 c -0.097656 1.996094 -0.15625 4.023438 -0.15625 6.09375 v 12.964844 c 0 4.832031 3.917969 8.75 8.75 8.75 h 70.5 c 4.832031 0 8.75 -3.917969 8.75 -8.75 v -12.964844 c 0 -2.214844 -0.382812 -4.246094 -0.992188 -6.09375 z m 0 0"/>
    </clipPath>
    <clipPath id="d">
        <path d="m 20 92 h 88 v 28 h -88 z m 0 0"/>
    </clipPath>
    <clipPath id="e">
        <path d="m 15 87.191406 h 98 v 37.808594 h -98 z m 5.15625 3 c -0.097656 1.996094 -0.15625 4.023438 -0.15625 6.09375 v 12.964844 c 0 4.832031 3.917969 8.75 8.75 8.75 h 70.5 c 4.832031 0 8.75 -3.917969 8.75 -8.75 v -12.964844 c 0 -2.214844 -0.382812 -4.246094 -0.992188 -6.09375 z m 0 0"/>
    </clipPath>
    <clipPath id="f">
        <rect height="128" width="128"/>
    </clipPath>
    <clipPath id="g">
        <rect height="128" width="128"/>
    </clipPath>
    <mask id="h">
        <g filter="url(#a)">
            <g clip-path="url(#g)" filter="url(#a)">
                <g clip-path="url(#f)">
                    <path d="m 108 27.613281 c -1 0.011719 -2 0.03125 -2 0.03125 v 1.683594 c 0 3.84375 -1.019531 5.957031 -1.8125 7.976563 c -0.714844 1.839843 -1.574219 3.550781 -2.53125 5.457031 c -1.871094 3.742187 -4.226562 7.933593 -6.324219 12.320312 c -3.34375 7.003907 -6.230469 12.976563 -6.949219 17.851563 c -0.054687 0.359375 -0.027343 0.925781 0.128907 1.339844 c 0.160156 0.410156 0.242187 0.472656 0.234375 0.464843 c 0.550781 1.074219 1.070312 1.800781 2.742187 2.992188 l 0.992188 -4.691407 c 0.671875 -3.785156 3.242187 -9.523437 6.472656 -16.285156 c 2.027344 -4.234375 4.359375 -8.390625 6.292969 -12.257812 c 1.578125 -3.148438 2.796875 -8.980469 2.773437 -12.925782 c -0.007812 -1.320312 -0.019531 -2.644531 -0.019531 -3.957031 z m 0 0" fill="#613583"/>
                    <path d="m 86.90625 8 c -11.640625 0 -28.316406 7.265625 -42.015625 21.625 s -24.890625 36.929688 -24.890625 67.046875 v 12.734375 c 0 4.746094 3.917969 8.59375 8.75 8.59375 h 70.5 c 4.832031 0 8.75 -3.847656 8.75 -8.59375 v -12.734375 c 0 -8.109375 -5.191406 -13.847656 -8.523438 -16.324219 c -3.136718 -2.335937 -5.164062 -3.472656 -6.621093 -4.511718 c -1.625 -1.15625 -2.144531 -1.636719 -2.324219 -1.980469 c -0.125 -0.246094 -0.21875 -0.296875 -0.167969 -0.640625 c 0.636719 -4.324219 3.4375 -10.300782 6.78125 -17.296875 c 2.058594 -4.3125 4.402344 -8.484375 6.308594 -12.289063 c 0.953125 -1.902344 1.84375 -3.671875 2.601563 -5.621094 c 0.75 -1.914062 1.945312 -4.472656 1.945312 -8.679687 v -1.6875 c 0 -10.847656 -8.953125 -19.640625 -20 -19.640625 z m -27.707031 55.8125 c -0.753907 3.617188 -1.113281 7.535156 -0.71875 11.984375 c 0.355469 3.992187 1.539062 7.5625 3.101562 10.773437 h -8.964843 c 1.042968 -9.167968 3.429687 -16.667968 6.582031 -22.757812 z m 0 0" fill="#9141ac"/>
                    <path d="m 86.90625 15.855469 c -10.703125 0 -23.78125 6.144531 -36.179688 19.140625 c -12.398437 12.996094 -22.726562 33.402344 -22.726562 61.675781 v 4.875 c 0 4.746094 3.917969 8.59375 8.75 8.59375 h 54.5 c 4.832031 0 8.75 -3.847656 8.75 -8.59375 v -4.875 c 0 -4.859375 -3.238281 -8.382813 -5.542969 -10.207031 c -2.304687 -1.824219 -4.398437 -2.964844 -6.175781 -4.179688 c -3.558594 -2.4375 -5.472656 -3.847656 -5.890625 -8.542968 c -0.191406 -2.128907 3.164063 -12.488282 7.574219 -21.292969 c 2.203125 -4.402344 4.488281 -8.652344 6.308594 -12.289063 c 0.910156 -1.816406 1.703124 -3.472656 2.351562 -5.066406 c 0.648438 -1.597656 1.375 -2.734375 1.375 -5.765625 v -1.6875 c 0 -6.507813 -5.375 -11.785156 -12 -11.785156 z m -4.847656 17.066406 c -0.0625 0.125 -0.082032 0.179687 -0.144532 0.304687 c -1.652343 3.304688 -3.976562 7.632813 -6.308593 12.289063 c -4.664063 9.316406 -10.097657 19.011719 -9.15625 29.597656 c 0.855469 9.597657 6.941406 15.804688 11.742187 19.316407 h -34.09375 c 0.523438 -23.285157 8.820313 -38.746094 18.304688 -48.6875 c 6.769531 -7.097657 14.585937 -10.992188 19.65625 -12.820313 z m 0 0" fill="#ffffff"/>
                    <path d="m 36 96.671875 c -0.171875 2.929687 2.105469 5.445313 5.089844 5.613281 h 45.820312 c 2.980469 -0.167968 5.261719 -2.683594 5.089844 -5.613281 c 0 -6.425781 -16.253906 -7.339844 -17.578125 -22.242187 c -1.132813 -12.71875 17.578125 -40.105469 17.578125 -45.105469 c 0.171875 -2.929688 -2.109375 -5.441407 -5.089844 -5.609375 c -13.039062 0 -50.910156 20.09375 -50.910156 72.957031 z m 0 0" fill="#3584e4"/>
                    <g clip-path="url(#d)">
                        <g clip-path="url(#e)">
                            <path d="m 20.15625 92.191406 c -0.097656 1.996094 -0.15625 4.023438 -0.15625 6.09375 v 12.964844 c 0 4.832031 3.917969 8.75 8.75 8.75 h 70.5 c 4.832031 0 8.75 -3.917969 8.75 -8.75 v -12.964844 c 0 -2.214844 -0.382812 -4.246094 -0.992188 -6.09375 z m 0 0" fill="#613583"/>
                        </g>
                    </g>
                </g>
            </g>
        </g>
    </mask>
    <mask id="i">
        <g filter="url(#a)">
            <rect fill-opacity="0.8" height="184.32" width="184.32" x="-28.16" y="-28.16"/>
        </g>
    </mask>
    <linearGradient id="j" gradientTransform="matrix(0 0.37 -0.98462 0 295.38501 -30.360001)" gradientUnits="userSpaceOnUse" x1="300" x2="428" y1="235" y2="235">
        <stop offset="0" stop-color="#f9f06b"/>
        <stop offset="1" stop-color="#f5c211"/>
    </linearGradient>
    <clipPath id="k">
        <rect height="128" width="128"/>
    </clipPath>
    <clipPath id="l">
        <rect height="128" width="128"/>
    </clipPath>
    <path d="m 108 27.613281 c -1 0.011719 -2 0.03125 -2 0.03125 v 1.683594 c 0 3.84375 -1.019531 5.957031 -1.8125 7.976563 c -0.714844 1.839843 -1.574219 3.550781 -2.53125 5.457031 c -1.871094 3.742187 -4.226562 7.933593 -6.324219 12.320312 c -3.34375 7.003907 -6.230469 12.976563 -6.949219 17.851563 c -0.054687 0.359375 -0.027343 0.925781 0.128907 1.339844 c 0.160156 0.410156 0.242187 0.472656 0.234375 0.464843 c 0.550781 1.074219 1.070312 1.800781 2.742187 2.992188 l 0.992188 -4.691407 c 0.671875 -3.785156 3.242187 -9.523437 6.472656 -16.285156 c 2.027344 -4.234375 4.359375 -8.390625 6.292969 -12.257812 c 1.578125 -3.148438 2.796875 -8.980469 2.773437 -12.925782 c -0.007812 -1.320312 -0.019531 -2.644531 -0.019531 -3.957031 z m 0 0" fill="#613583"/>
    <path d="m 86.90625 8 c -11.640625 0 -28.316406 7.265625 -42.015625 21.625 s -24.890625 36.929688 -24.890625 67.046875 v 12.734375 c 0 4.746094 3.917969 8.59375 8.75 8.59375 h 70.5 c 4.832031 0 8.75 -3.847656 8.75 -8.59375 v -12.734375 c 0 -8.109375 -5.191406 -13.847656 -8.523438 -16.324219 c -3.136718 -2.335937 -5.164062 -3.472656 -6.621093 -4.511718 c -1.625 -1.15625 -2.144531 -1.636719 -2.324219 -1.980469 c -0.125 -0.246094 -0.21875 -0.296875 -0.167969 -0.640625 c 0.636719 -4.324219 3.4375 -10.300782 6.78125 -17.296875 c 2.058594 -4.3125 4.402344 -8.484375 6.308594 -12.289063 c 0.953125 -1.902344 1.84375 -3.671875 2.601563 -5.621094 c 0.75 -1.914062 1.945312 -4.472656 1.945312 -8.679687 v -1.6875 c 0 -10.847656 -8.953125 -19.640625 -20 -19.640625 z m -27.707031 55.8125 c -0.753907 3.617188 -1.113281 7.535156 -0.71875 11.984375 c 0.355469 3.992187 1.539062 7.5625 3.101562 10.773437 h -8.964843 c 1.042968 -9.167968 3.429687 -16.667968 6.582031 -22.757812 z m 0 0" fill="#9141ac"/>
    <path d="m 86.90625 15.855469 c -10.703125 0 -23.78125 6.144531 -36.179688 19.140625 c -12.398437 12.996094 -22.726562 33.402344 -22.726562 61.675781 v 4.875 c 0 4.746094 3.917969 8.59375 8.75 8.59375 h 54.5 c 4.832031 0 8.75 -3.847656 8.75 -8.59375 v -4.875 c 0 -4.859375 -3.238281 -8.382813 -5.542969 -10.207031 c -2.304687 -1.824219 -4.398437 -2.964844 -6.175781 -4.179688 c -3.558594 -2.4375 -5.472656 -3.847656 -5.890625 -8.542968 c -0.191406 -2.128907 3.164063 -12.488282 7.574219 -21.292969 c 2.203125 -4.402344 4.488281 -8.652344 6.308594 -12.289063 c 0.910156 -1.816406 1.703124 -3.472656 2.351562 -5.066406 c 0.648438 -1.597656 1.375 -2.734375 1.375 -5.765625 v -1.6875 c 0 -6.507813 -5.375 -11.785156 -12 -11.785156 z m -4.847656 17.066406 c -0.0625 0.125 -0.082032 0.179687 -0.144532 0.304687 c -1.652343 3.304688 -3.976562 7.632813 -6.308593 12.289063 c -4.664063 9.316406 -10.097657 19.011719 -9.15625 29.597656 c 0.855469 9.597657 6.941406 15.804688 11.742187 19.316407 h -34.09375 c 0.523438 -23.285157 8.820313 -38.746094 18.304688 -48.6875 c 6.769531 -7.097657 14.585937 -10.992188 19.65625 -12.820313 z m 0 0" fill="#ffffff"/>
    <path d="m 36 96.671875 c -0.171875 2.929687 2.105469 5.445313 5.089844 5.613281 h 45.820312 c 2.980469 -0.167968 5.261719 -2.683594 5.089844 -5.613281 c 0 -6.425781 -16.253906 -7.339844 -17.578125 -22.242187 c -1.132813 -12.71875 17.578125 -40.105469 17.578125 -45.105469 c 0.171875 -2.929688 -2.109375 -5.441407 -5.089844 -5.609375 c -13.039062 0 -50.910156 20.09375 -50.910156 72.957031 z m 0 0" fill="#3584e4"/>
    <g clip-path="url(#b)">
        <g clip-path="url(#c)">
            <path d="m 20.15625 92.191406 c -0.097656 1.996094 -0.15625 4.023438 -0.15625 6.09375 v 12.964844 c 0 4.832031 3.917969 8.75 8.75 8.75 h 70.5 c 4.832031 0 8.75 -3.917969 8.75 -8.75 v -12.964844 c 0 -2.214844 -0.382812 -4.246094 -0.992188 -6.09375 z m 0 0" fill="#613583"/>
        </g>
    </g>
    <g mask="url(#h)">
        <g clip-path="url(#l)">
            <g mask="url(#i)">
                <g clip-path="url(#k)">
                    <path d="m 128 80.640625 v 47.359375 h -128 v -47.359375 z m 0 0" fill="url(#j)"/>
                    <path d="m 13.308594 80.640625 l 47.355468 47.359375 h 21.214844 l -47.359375 -47.359375 z m 42.421875 0 l 47.363281 47.359375 h 21.214844 l -47.363282 -47.359375 z m 42.429687 0 l 29.839844 29.839844 v -21.210938 l -8.628906 -8.628906 z m -98.160156 7.90625 v 21.214844 l 18.238281 18.238281 h 21.214844 z m 0 0"/>
                </g>
            </g>
        </g>
    </g>
</svg>
